<?xml version="1.0" encoding="utf-8" ?><svg xmlns="http://www.w3.org/2000/svg" xmlns:xlink="http://www.w3.org/1999/xlink" width="1024" height="1024" viewBox="0 0 1024 1024"><clipPath id="cl_7"><rect width="1024" height="1024"/></clipPath><g clip-path="url(#cl_7)"><path transform="scale(1 0.986513)" d="M0 0L1024 0L1024 1039L0 1039L0 0Z"/><path fill="white" transform="scale(1 0.986513)" d="M587.927 473.469C586.676 473.777 586.705 473.873 585.492 473.528L585.182 472.462C587.974 462.025 607.365 431.219 613.658 421.621C648.558 368.4 701.517 330.092 755.7 298.329C761.516 294.92 782.432 281.91 788.037 280.806L788.742 281.509C788.423 283.22 788.016 285.884 787.608 287.491C787.492 295.816 780.186 324.321 777.067 332.377C773.683 345.574 765.637 368.789 759.709 381.199C750.096 397.961 720.438 417.95 703.788 428.059C675.581 445.643 643.87 458.173 612.018 467.304C604.621 469.424 595.497 472.151 587.927 473.469Z"/><path fill="#F4F3F2" transform="scale(1 0.986513)" d="M788.742 281.509C788.423 283.22 788.016 285.884 787.608 287.491C787.492 295.816 780.186 324.321 777.067 332.377C773.683 345.574 765.637 368.789 759.709 381.199C750.096 397.961 720.438 417.95 703.788 428.059C703.112 426.501 703.072 425.766 703.6 424.131C707.272 412.741 713.228 401.713 717.332 390.567C721.234 379.971 724.03 368.24 727.681 357.49C728.97 353.695 731.551 351.17 732.648 347.105C738.283 340.092 744.296 333.865 750.162 327.004C759.64 315.918 768.698 304.287 778.281 293.34C781.055 289.685 785.099 284.215 788.742 281.509Z"/><path fill="white" transform="scale(1 0.986513)" d="M788.742 281.509C788.423 283.22 788.016 285.884 787.608 287.491C787.492 295.816 780.186 324.321 777.067 332.377C773.683 345.574 765.637 368.789 759.709 381.199C758.011 375.073 759.528 371.021 761.95 365.621C765.524 353.847 769.157 342.092 772.85 330.356C771.335 325.064 776.775 313.062 777.568 306.394C778.313 300.129 778.644 300.246 778.281 293.34C781.055 289.685 785.099 284.215 788.742 281.509Z"/><path fill="#C1C3C2" transform="scale(1 0.986513)" d="M788.742 281.509C788.423 283.22 788.016 285.884 787.608 287.491C784.162 292.481 775.181 322.745 772.85 330.356C771.335 325.064 776.775 313.062 777.568 306.394C778.313 300.129 778.644 300.246 778.281 293.34C781.055 289.685 785.099 284.215 788.742 281.509Z"/><defs><linearGradient id="gradient_0" gradientUnits="userSpaceOnUse" x1="771.32526" y1="359.19583" x2="763.15247" y2="354.10202"><stop offset="0" stop-color="#D5CBCC"/><stop offset="1" stop-color="#AFCDCF"/></linearGradient></defs><path fill="url(#gradient_0)" transform="scale(1 0.986513)" d="M761.95 365.621L762.63 365.84C767.656 358.181 772.638 336.012 777.067 332.377C773.683 345.574 765.637 368.789 759.709 381.199C758.011 375.073 759.528 371.021 761.95 365.621Z"/><defs><linearGradient id="gradient_1" gradientUnits="userSpaceOnUse" x1="618.73169" y1="396.86359" x2="701.99036" y2="428.25592"><stop offset="0" stop-color="#8C8B8C"/><stop offset="1" stop-color="#D6D5D4"/></linearGradient></defs><path fill="url(#gradient_1)" transform="scale(1 0.986513)" d="M732.648 347.105C731.551 351.17 728.97 353.695 727.681 357.49C724.03 368.24 721.234 379.971 717.332 390.567C713.228 401.713 707.272 412.741 703.6 424.131C703.072 425.766 703.112 426.501 703.788 428.059C675.581 445.643 643.87 458.173 612.018 467.304C604.621 469.424 595.497 472.151 587.927 473.469C589.843 471.177 593.275 468.621 595.845 466.988C616.882 453.625 636.548 438.915 655.583 422.788C673.699 407.252 691.066 390.864 707.627 373.681C715.898 365.121 724.366 355.292 732.648 347.105Z"/><path fill="white" transform="scale(1 0.986513)" d="M629.304 501.682C642.244 498.081 653.219 493.736 665.501 488.346C698.142 474.023 719.814 460.582 742.78 433.345C732.488 457.866 716.128 485.478 696.864 504.238C691.737 509.231 674.194 518.563 667.135 522.82C625.782 547.421 583.136 569.78 539.38 589.8C507.284 604.752 474.89 619.055 442.217 632.701C438.486 634.268 434.688 635.67 430.834 636.905L426.826 638.295C422.282 632.538 420.278 626.759 417.702 620.011C430.682 610.576 444.48 601.423 457.725 592.261L523.233 546.93C536.103 538.109 548.702 529.178 561.135 519.75C563.298 518.109 565.882 516.999 568.561 516.507C576.253 514.159 588.219 511.969 596.524 510.036C607.179 508.154 618.499 504.022 629.304 501.682Z"/><path fill="#F4F3F2" transform="scale(1 0.986513)" d="M629.304 501.682C642.244 498.081 653.219 493.736 665.501 488.346C698.142 474.023 719.814 460.582 742.78 433.345C732.488 457.866 716.128 485.478 696.864 504.238C691.737 509.231 674.194 518.563 667.135 522.82C625.782 547.421 583.136 569.78 539.38 589.8C507.284 604.752 474.89 619.055 442.217 632.701C438.486 634.268 434.688 635.67 430.834 636.905C430.692 635.368 433.479 634.236 435.061 633.396C457.955 621.235 481.568 610.615 504.811 599.079C542.85 580.268 580.536 560.751 617.849 540.538C631.594 533.271 645.227 525.794 658.743 518.11C677.582 507.375 689.811 500.673 703.245 482.681C681.605 491.624 672.454 498.783 647.77 503.508C638.673 501.975 632.715 506.806 628.522 504.879C628.211 503.082 628.294 503.668 629.304 501.682Z"/><defs><linearGradient id="gradient_2" gradientUnits="userSpaceOnUse" x1="598.60657" y1="516.52502" x2="628.16046" y2="501.30429"><stop offset="0" stop-color="#899193"/><stop offset="1" stop-color="#BDBAB9"/></linearGradient></defs><path fill="url(#gradient_2)" transform="scale(1 0.986513)" d="M596.524 510.036C607.179 508.154 618.499 504.022 629.304 501.682C628.294 503.668 628.211 503.082 628.522 504.879C632.715 506.806 638.673 501.975 647.77 503.508C641.013 504.684 633.659 506.959 626.857 508.507C616.522 510.765 606.113 512.67 595.648 514.22L596.524 510.036Z"/><path fill="#6C848C" transform="scale(1 0.986513)" d="M568.561 516.507C576.253 514.159 588.219 511.969 596.524 510.036L595.648 514.22C590.335 515.167 572.357 518.966 568.561 516.507Z"/><path fill="white" transform="scale(1 0.986513)" d="M627.112 300.957L627.723 301.076C627.196 303.026 616.898 306.709 614.301 307.922C598.555 315.279 578.924 325.336 568.616 339.537C555.264 357.931 550.123 385.167 545.082 407.106L536.102 446.411C534.017 455.79 532.155 471.356 525.928 478.1C515.921 488.939 503.985 499.533 493.255 509.679L439.428 560.307C425.826 573.142 412.31 586.069 398.883 599.087C395.816 596.697 390.797 593.511 387.462 591.242C391.887 585.527 396.739 580.031 401.319 574.393C426.757 543.083 451.937 511.117 475.085 478.08C494.456 450.431 510.156 420.344 527.289 391.308C529.202 388.067 542.815 364.907 542.804 362.584L542.113 362.827C524.084 381.667 506.524 400.95 489.447 420.658C461.209 452.926 433.614 486.495 409.519 522.005C401.338 534.115 393.568 546.498 386.223 559.133C381.302 567.606 374.812 579.64 369.607 587.44C373.51 576.379 381.004 562.761 387.288 552.726C421.415 498.221 462.214 447.575 503.267 398.137C524.479 372.592 548.479 340.938 574.757 320.742C585.648 312.372 613.332 304.32 627.112 300.957Z"/><path fill="white" transform="scale(1 0.986513)" d="M316.87 765.854C323.725 762.403 331.174 759.57 338.142 756.158C392.281 729.649 443.292 698.666 488.905 658.999C504.408 645.575 518.718 630.831 531.672 614.934C533.774 612.374 539.396 604.724 542.212 604.434L542.516 605.612C543.102 629.612 530.604 659.111 513.28 675.875C473.37 714.498 418.792 738.195 366.368 754.394C355.157 757.858 341.932 762.589 330.75 764.072C326.414 765.047 320.922 766.447 316.601 766.908L316.87 765.854Z"/><path fill="#F4F3F2" transform="scale(1 0.986513)" d="M542.516 605.612C543.102 629.612 530.604 659.111 513.28 675.875C473.37 714.498 418.792 738.195 366.368 754.394C355.157 757.858 341.932 762.589 330.75 764.072C335.541 760.625 356.224 755.147 364.102 751.864C412.969 731.5 470.703 708.376 506.931 668.207C518.084 655.879 527.178 641.835 533.863 626.614C536.364 620.866 538.594 610.083 542.516 605.612Z"/><path fill="white" transform="scale(1 0.986513)" d="M427.183 477.936L428.458 477.458C429.141 480.626 408.802 507.715 405.772 512.162C391.391 533.273 378.864 555.069 370.97 579.472C365.281 579.201 359.117 579.021 353.577 580.605C326.867 588.245 296.632 613.228 276.553 631.481C273.216 634.526 269.896 637.59 266.594 640.672C258.591 649.939 248.721 658.201 240.155 667.143L238.631 666.54C253.371 648.526 266.999 631.146 282.368 613.571C316.187 574.902 352.721 538.693 391.691 505.219C398.843 499.041 419.133 481.584 427.183 477.936Z"/><path fill="#F4F3F2" transform="scale(1 0.986513)" d="M427.183 477.936L428.458 477.458C429.141 480.626 408.802 507.715 405.772 512.162C391.391 533.273 378.864 555.069 370.97 579.472C365.281 579.201 359.117 579.021 353.577 580.605C326.867 588.245 296.632 613.228 276.553 631.481C273.216 634.526 269.896 637.59 266.594 640.672C266.767 635.912 283.795 620.33 287.673 616.677C310.165 595.483 333.026 574.075 365.382 571.689C374.008 546.415 388.233 521.158 405.957 501.07C411.221 495.106 423.522 484.014 427.183 477.936Z"/><path fill="white" transform="scale(1 0.986513)" d="M757.072 278.816C765.91 277.888 778.214 278.629 787.026 279.402C770.761 281.322 754.601 284.046 738.606 287.565C681.134 300.376 623.644 323.49 590.9 375.12C587.093 381.443 583.491 388.92 580.267 395.553C586.094 366.661 593.64 341.615 612.863 317.924C615.998 314.06 627.925 302.803 631.876 300.723C637.548 297.737 649.754 295.058 656.276 293.571C689.402 285.836 723.119 280.9 757.072 278.816Z"/><path fill="white" transform="scale(1 0.986513)" d="M246.66 643.493C255.172 624.269 264.934 605.623 275.884 587.676C300.787 546.248 334.783 500.455 381.084 482.042C398.141 475.258 409.025 473.426 427.002 473.562C416.944 476.659 408.47 479.335 398.827 483.955C341.414 511.462 299.686 565.629 265.366 617.528C259.849 625.872 254.277 636.175 249.108 644.804L246.66 643.493Z"/><path fill="white" transform="scale(1 0.986513)" d="M502.11 620.399L502.484 620.644C501.859 622.564 481.439 637.838 478.551 640.069C459.919 654.369 441.364 668.766 422.884 683.262C404.225 698.158 386.118 713.439 367.122 727.941C357.841 734.928 348.478 741.806 339.036 748.573C332.399 753.374 325.304 758.745 318.42 763.034L318.074 762.827C318.549 761.857 331.43 751.617 333.012 750.358C369.848 721.051 398.744 693.029 422.071 651.826C449.508 647.77 478.645 634.966 502.11 620.399Z"/><path fill="#6C848C" transform="scale(1 0.986513)" d="M246.66 643.493L249.108 644.804L239.906 660.013C241.966 654.193 244.191 649.147 246.66 643.493Z"/><path fill="#041D21" transform="scale(1 0.986513)" d="M306.951 769.74C309.196 768.202 314.304 764.187 316.789 764.303L316.87 765.854L316.601 766.908C313.389 767.87 310.173 768.814 306.951 769.74Z"/><path fill="white" transform="scale(1 0.986513)" d="M238.631 666.54L240.155 667.143C237.897 669.53 236.196 671.171 233.745 673.361C235.449 670.664 236.478 668.904 238.631 666.54Z"/></g></svg>